<svg width="390" height="278" viewBox="0 0 390 278" fill="none" xmlns="http://www.w3.org/2000/svg">
<g clip-path="url(#clip0_2_582)">
<mask id="path-1-inside-1_2_582" fill="white">
<path d="M-1.79993 11C-1.79993 4.37258 3.57266 -1 10.2001 -1H375.2C381.827 -1 387.2 4.37258 387.2 11V265C387.2 271.627 381.827 277 375.2 277H10.2001C3.57265 277 -1.79993 271.627 -1.79993 265V11Z"/>
</mask>
<path d="M-1.79993 11C-1.79993 4.37258 3.57266 -1 10.2001 -1H375.2C381.827 -1 387.2 4.37258 387.2 11V265C387.2 271.627 381.827 277 375.2 277H10.2001C3.57265 277 -1.79993 271.627 -1.79993 265V11Z" fill="white"/>
<path d="M76.8501 96.71C74.3301 99.95 71.5401 102.23 68.4801 103.55C65.4201 104.81 62.3301 105.44 59.2101 105.44C54.2901 105.44 49.8501 104.6 45.8901 102.92C41.9901 101.18 38.6901 98.81 35.9901 95.81C33.2901 92.81 31.2201 89.3 29.7801 85.28C28.3401 81.2 27.6201 76.82 27.6201 72.14C27.6201 67.34 28.3401 62.9 29.7801 58.82C31.2201 54.68 33.2901 51.08 35.9901 48.02C38.6901 44.96 41.9901 42.56 45.8901 40.82C49.8501 39.08 54.2901 38.21 59.2101 38.21C62.5101 38.21 65.6901 38.72 68.7501 39.74C71.8701 40.7 74.6601 42.14 77.1201 44.06C79.6401 45.98 81.7101 48.35 83.3301 51.17C84.9501 53.99 85.9401 57.23 86.3001 60.89H72.8001C71.9601 57.29 70.3401 54.59 67.9401 52.79C65.5401 50.99 62.6301 50.09 59.2101 50.09C56.0301 50.09 53.3301 50.72 51.1101 51.98C48.8901 53.18 47.0901 54.83 45.7101 56.93C44.3301 58.97 43.3101 61.31 42.6501 63.95C42.0501 66.59 41.7501 69.32 41.7501 72.14C41.7501 74.84 42.0501 77.48 42.6501 80.06C43.3101 82.58 44.3301 84.86 45.7101 86.9C47.0901 88.94 48.8901 90.59 51.1101 91.85C53.3301 93.05 56.0301 93.65 59.2101 93.65C63.8901 93.65 67.4901 92.48 70.0101 90.14C72.5901 87.74 74.0901 84.29 74.5101 79.79H60.2901V69.26H87.2901V104H78.2901L76.8501 96.71ZM105.631 68.81H121.111C124.351 68.81 126.781 68.09 128.401 66.65C130.021 65.21 130.831 62.87 130.831 59.63C130.831 56.51 130.021 54.26 128.401 52.88C126.781 51.44 124.351 50.72 121.111 50.72H105.631V68.81ZM91.5011 39.74H126.151C129.031 39.74 131.611 40.22 133.891 41.18C136.231 42.08 138.211 43.34 139.831 44.96C141.511 46.58 142.771 48.47 143.611 50.63C144.511 52.73 144.961 55.01 144.961 57.47C144.961 61.25 144.151 64.52 142.531 67.28C140.971 70.04 138.391 72.14 134.791 73.58V73.76C136.531 74.24 137.971 74.99 139.111 76.01C140.251 76.97 141.181 78.14 141.901 79.52C142.621 80.84 143.131 82.31 143.431 83.93C143.791 85.55 144.031 87.17 144.151 88.79C144.211 89.81 144.271 91.01 144.331 92.39C144.391 93.77 144.481 95.18 144.601 96.62C144.781 98.06 145.021 99.44 145.321 100.76C145.681 102.02 146.191 103.1 146.851 104H132.721C131.941 101.96 131.461 99.53 131.281 96.71C131.101 93.89 130.831 91.19 130.471 88.61C129.991 85.25 128.971 82.79 127.411 81.23C125.851 79.67 123.301 78.89 119.761 78.89H105.631V104H91.5011V39.74ZM172.652 79.16H189.302L181.202 55.58H181.022L172.652 79.16ZM174.002 39.74H188.492L212.522 104H197.852L192.992 89.69H168.962L163.922 104H149.702L174.002 39.74ZM30.4101 116.74H50.3001L65.3301 160.93H65.5101L79.7301 116.74H99.6201V181H86.3901V135.46H86.2101L70.4601 181H59.5701L43.8201 135.91H43.6401V181H30.4101V116.74ZM104.86 116.74H152.92V128.62H118.99V142.39H150.13V153.37H118.99V169.12H153.64V181H104.86V116.74ZM171.05 169.12H183.65C185.69 169.12 187.67 168.79 189.59 168.13C191.51 167.47 193.22 166.39 194.72 164.89C196.22 163.33 197.42 161.32 198.32 158.86C199.22 156.4 199.67 153.4 199.67 149.86C199.67 146.62 199.34 143.71 198.68 141.13C198.08 138.49 197.06 136.24 195.62 134.38C194.18 132.52 192.26 131.11 189.86 130.15C187.52 129.13 184.61 128.62 181.13 128.62H171.05V169.12ZM156.92 116.74H184.64C188.78 116.74 192.62 117.4 196.16 118.72C199.76 120.04 202.85 122.02 205.43 124.66C208.07 127.3 210.11 130.6 211.55 134.56C213.05 138.52 213.8 143.17 213.8 148.51C213.8 153.19 213.2 157.51 212 161.47C210.8 165.43 208.97 168.85 206.51 171.73C204.11 174.61 201.08 176.89 197.42 178.57C193.82 180.19 189.56 181 184.64 181H156.92V116.74ZM213.189 169.84L247.659 128.62H215.889V116.74H266.469V127.9L231.999 169.12H267.369V181H213.189V169.84ZM271.188 116.74H285.318V181H271.188V116.74ZM290.531 116.74H304.661V143.38L329.771 116.74H347.411L322.301 142.12L349.841 181H332.111L312.761 152.11L304.661 160.3V181H290.531V116.74Z" fill="#141212"/>
<circle cx="240.2" cy="111" r="6" fill="#141212"/>
<path d="M-1.79993 11C-1.79993 4.37258 3.57266 -1 10.2001 -1H375.2C381.827 -1 387.2 4.37258 387.2 11V265C387.2 271.627 381.827 277 375.2 277H10.2001C3.57265 277 -1.79993 271.627 -1.79993 265V11Z" stroke="black" stroke-width="30" mask="url(#path-1-inside-1_2_582)"/>
<path d="M106.2 213C106.2 206.373 111.573 201 118.2 201H372.2V262H106.2V213Z" fill="black"/>
<path d="M136.88 252.304C138.56 252.304 139.952 251.968 141.056 251.296C142.208 250.624 143.12 249.76 143.792 248.704C144.512 247.6 145.016 246.328 145.304 244.888C145.592 243.448 145.736 241.984 145.736 240.496C145.736 239.008 145.568 237.544 145.232 236.104C144.944 234.664 144.44 233.392 143.72 232.288C143 231.136 142.064 230.224 140.912 229.552C139.808 228.832 138.44 228.472 136.808 228.472C135.128 228.472 133.712 228.832 132.56 229.552C131.456 230.224 130.544 231.112 129.824 232.216C129.152 233.32 128.672 234.592 128.384 236.032C128.096 237.472 127.952 238.96 127.952 240.496C127.952 241.984 128.096 243.448 128.384 244.888C128.72 246.328 129.224 247.6 129.896 248.704C130.616 249.76 131.552 250.624 132.704 251.296C133.856 251.968 135.248 252.304 136.88 252.304ZM118.088 221.776H127.808V226.528H127.952C129.2 224.512 130.784 223.048 132.704 222.136C134.624 221.224 136.736 220.768 139.04 220.768C141.968 220.768 144.488 221.32 146.6 222.424C148.712 223.528 150.464 224.992 151.856 226.816C153.248 228.64 154.28 230.776 154.952 233.224C155.624 235.624 155.96 238.144 155.96 240.784C155.96 243.28 155.624 245.68 154.952 247.984C154.28 250.288 153.248 252.328 151.856 254.104C150.512 255.88 148.808 257.296 146.744 258.352C144.728 259.408 142.352 259.936 139.616 259.936C137.312 259.936 135.176 259.48 133.208 258.568C131.288 257.608 129.704 256.216 128.456 254.392H128.312V272.032H118.088V221.776ZM167.576 240.424C167.576 241.912 167.72 243.376 168.008 244.816C168.296 246.208 168.776 247.48 169.448 248.632C170.168 249.736 171.104 250.624 172.256 251.296C173.408 251.968 174.848 252.304 176.576 252.304C178.304 252.304 179.744 251.968 180.896 251.296C182.096 250.624 183.032 249.736 183.704 248.632C184.424 247.48 184.928 246.208 185.216 244.816C185.504 243.376 185.648 241.912 185.648 240.424C185.648 238.936 185.504 237.472 185.216 236.032C184.928 234.592 184.424 233.32 183.704 232.216C183.032 231.112 182.096 230.224 180.896 229.552C179.744 228.832 178.304 228.472 176.576 228.472C174.848 228.472 173.408 228.832 172.256 229.552C171.104 230.224 170.168 231.112 169.448 232.216C168.776 233.32 168.296 234.592 168.008 236.032C167.72 237.472 167.576 238.936 167.576 240.424ZM157.352 240.424C157.352 237.448 157.808 234.76 158.72 232.36C159.632 229.912 160.928 227.848 162.608 226.168C164.288 224.44 166.304 223.12 168.656 222.208C171.008 221.248 173.648 220.768 176.576 220.768C179.504 220.768 182.144 221.248 184.496 222.208C186.896 223.12 188.936 224.44 190.616 226.168C192.296 227.848 193.592 229.912 194.504 232.36C195.416 234.76 195.872 237.448 195.872 240.424C195.872 243.4 195.416 246.088 194.504 248.488C193.592 250.888 192.296 252.952 190.616 254.68C188.936 256.36 186.896 257.656 184.496 258.568C182.144 259.48 179.504 259.936 176.576 259.936C173.648 259.936 171.008 259.48 168.656 258.568C166.304 257.656 164.288 256.36 162.608 254.68C160.928 252.952 159.632 250.888 158.72 248.488C157.808 246.088 157.352 243.4 157.352 240.424ZM225.343 240.28C225.343 238.744 225.199 237.28 224.911 235.888C224.623 234.448 224.119 233.2 223.399 232.144C222.727 231.04 221.839 230.152 220.735 229.48C219.631 228.808 218.239 228.472 216.559 228.472C214.879 228.472 213.463 228.808 212.311 229.48C211.159 230.152 210.223 231.04 209.503 232.144C208.831 233.248 208.327 234.52 207.991 235.96C207.703 237.352 207.559 238.816 207.559 240.352C207.559 241.792 207.727 243.232 208.063 244.672C208.399 246.112 208.927 247.408 209.647 248.56C210.415 249.664 211.351 250.576 212.455 251.296C213.607 251.968 214.975 252.304 216.559 252.304C218.239 252.304 219.631 251.968 220.735 251.296C221.887 250.624 222.799 249.736 223.471 248.632C224.143 247.48 224.623 246.184 224.911 244.744C225.199 243.304 225.343 241.816 225.343 240.28ZM225.487 254.248H225.343C224.143 256.264 222.559 257.728 220.591 258.64C218.671 259.504 216.487 259.936 214.039 259.936C211.255 259.936 208.807 259.408 206.695 258.352C204.583 257.248 202.831 255.784 201.439 253.96C200.095 252.088 199.063 249.952 198.343 247.552C197.671 245.152 197.335 242.656 197.335 240.064C197.335 237.568 197.671 235.168 198.343 232.864C199.063 230.512 200.095 228.448 201.439 226.672C202.831 224.896 204.559 223.48 206.623 222.424C208.687 221.32 211.087 220.768 213.823 220.768C216.031 220.768 218.119 221.248 220.087 222.208C222.103 223.12 223.687 224.488 224.839 226.312H224.983V207.592H235.207V259H225.487V254.248ZM264.679 234.88C264.007 230.608 261.487 228.472 257.119 228.472C255.487 228.472 254.119 228.856 253.015 229.624C251.911 230.344 250.999 231.304 250.279 232.504C249.607 233.656 249.127 234.952 248.839 236.392C248.551 237.784 248.407 239.176 248.407 240.568C248.407 241.912 248.551 243.28 248.839 244.672C249.127 246.064 249.583 247.336 250.207 248.488C250.879 249.592 251.767 250.504 252.871 251.224C253.975 251.944 255.319 252.304 256.903 252.304C259.351 252.304 261.223 251.632 262.519 250.288C263.863 248.896 264.703 247.048 265.039 244.744H274.903C274.231 249.688 272.311 253.456 269.143 256.048C265.975 258.64 261.919 259.936 256.975 259.936C254.191 259.936 251.623 259.48 249.271 258.568C246.967 257.608 244.999 256.288 243.367 254.608C241.735 252.928 240.463 250.936 239.551 248.632C238.639 246.28 238.183 243.712 238.183 240.928C238.183 238.048 238.591 235.384 239.407 232.936C240.271 230.44 241.519 228.304 243.151 226.528C244.783 224.704 246.775 223.288 249.127 222.28C251.479 221.272 254.167 220.768 257.191 220.768C259.399 220.768 261.511 221.056 263.527 221.632C265.591 222.208 267.415 223.096 268.999 224.296C270.631 225.448 271.951 226.912 272.959 228.688C273.967 230.416 274.543 232.48 274.687 234.88H264.679ZM276.647 233.224C276.791 230.824 277.391 228.832 278.447 227.248C279.503 225.664 280.847 224.392 282.479 223.432C284.111 222.472 285.935 221.8 287.951 221.416C290.015 220.984 292.079 220.768 294.143 220.768C296.015 220.768 297.911 220.912 299.831 221.2C301.751 221.44 303.503 221.944 305.087 222.712C306.671 223.48 307.967 224.56 308.975 225.952C309.983 227.296 310.487 229.096 310.487 231.352V250.72C310.487 252.4 310.583 254.008 310.775 255.544C310.967 257.08 311.303 258.232 311.783 259H301.415C301.223 258.424 301.055 257.848 300.911 257.272C300.815 256.648 300.743 256.024 300.695 255.4C299.063 257.08 297.143 258.256 294.935 258.928C292.727 259.6 290.471 259.936 288.167 259.936C286.391 259.936 284.735 259.72 283.199 259.288C281.663 258.856 280.319 258.184 279.167 257.272C278.015 256.36 277.103 255.208 276.431 253.816C275.807 252.424 275.495 250.768 275.495 248.848C275.495 246.736 275.855 245.008 276.575 243.664C277.343 242.272 278.303 241.168 279.455 240.352C280.655 239.536 281.999 238.936 283.487 238.552C285.023 238.12 286.559 237.784 288.095 237.544C289.631 237.304 291.143 237.112 292.631 236.968C294.119 236.824 295.439 236.608 296.591 236.32C297.743 236.032 298.655 235.624 299.327 235.096C299.999 234.52 300.311 233.704 300.263 232.648C300.263 231.544 300.071 230.68 299.687 230.056C299.351 229.384 298.871 228.88 298.247 228.544C297.671 228.16 296.975 227.92 296.159 227.824C295.391 227.68 294.551 227.608 293.639 227.608C291.623 227.608 290.039 228.04 288.887 228.904C287.735 229.768 287.063 231.208 286.871 233.224H276.647ZM300.263 240.784C299.831 241.168 299.279 241.48 298.607 241.72C297.983 241.912 297.287 242.08 296.519 242.224C295.799 242.368 295.031 242.488 294.215 242.584C293.399 242.68 292.583 242.8 291.767 242.944C290.999 243.088 290.231 243.28 289.463 243.52C288.743 243.76 288.095 244.096 287.519 244.528C286.991 244.912 286.559 245.416 286.223 246.04C285.887 246.664 285.719 247.456 285.719 248.416C285.719 249.328 285.887 250.096 286.223 250.72C286.559 251.344 287.015 251.848 287.591 252.232C288.167 252.568 288.839 252.808 289.607 252.952C290.375 253.096 291.167 253.168 291.983 253.168C293.999 253.168 295.559 252.832 296.663 252.16C297.767 251.488 298.583 250.696 299.111 249.784C299.639 248.824 299.951 247.864 300.047 246.904C300.191 245.944 300.263 245.176 300.263 244.6V240.784ZM322.742 246.904C322.742 248.008 322.958 248.968 323.39 249.784C323.87 250.552 324.47 251.2 325.19 251.728C325.91 252.208 326.726 252.568 327.638 252.808C328.598 253.048 329.582 253.168 330.59 253.168C331.31 253.168 332.054 253.096 332.822 252.952C333.638 252.76 334.358 252.496 334.982 252.16C335.654 251.776 336.206 251.296 336.638 250.72C337.07 250.096 337.286 249.328 337.286 248.416C337.286 246.88 336.254 245.728 334.19 244.96C332.174 244.192 329.342 243.424 325.694 242.656C324.206 242.32 322.742 241.936 321.302 241.504C319.91 241.024 318.662 240.424 317.558 239.704C316.454 238.936 315.566 238 314.894 236.896C314.222 235.744 313.886 234.352 313.886 232.72C313.886 230.32 314.342 228.352 315.254 226.816C316.214 225.28 317.462 224.08 318.998 223.216C320.534 222.304 322.262 221.68 324.182 221.344C326.102 220.96 328.07 220.768 330.086 220.768C332.102 220.768 334.046 220.96 335.918 221.344C337.838 221.728 339.542 222.376 341.03 223.288C342.518 224.2 343.742 225.424 344.702 226.96C345.71 228.448 346.31 230.344 346.502 232.648H336.782C336.638 230.68 335.894 229.36 334.55 228.688C333.206 227.968 331.622 227.608 329.798 227.608C329.222 227.608 328.598 227.656 327.926 227.752C327.254 227.8 326.63 227.944 326.054 228.184C325.526 228.424 325.07 228.784 324.686 229.264C324.302 229.696 324.11 230.296 324.11 231.064C324.11 231.976 324.446 232.72 325.118 233.296C325.79 233.872 326.654 234.352 327.71 234.736C328.814 235.072 330.062 235.384 331.454 235.672C332.846 235.96 334.262 236.272 335.702 236.608C337.19 236.944 338.63 237.352 340.022 237.832C341.462 238.312 342.734 238.96 343.838 239.776C344.942 240.544 345.83 241.528 346.502 242.728C347.174 243.88 347.51 245.32 347.51 247.048C347.51 249.496 347.006 251.56 345.998 253.24C345.038 254.872 343.766 256.192 342.182 257.2C340.598 258.208 338.774 258.904 336.71 259.288C334.694 259.72 332.63 259.936 330.518 259.936C328.358 259.936 326.246 259.72 324.182 259.288C322.118 258.856 320.27 258.136 318.638 257.128C317.054 256.12 315.734 254.8 314.678 253.168C313.67 251.488 313.118 249.4 313.022 246.904H322.742ZM362.854 221.776H370.342V228.616H362.854V247.048C362.854 248.776 363.142 249.928 363.718 250.504C364.294 251.08 365.446 251.368 367.174 251.368C367.75 251.368 368.302 251.344 368.83 251.296C369.358 251.248 369.862 251.176 370.342 251.08V259C369.478 259.144 368.518 259.24 367.462 259.288C366.406 259.336 365.374 259.36 364.366 259.36C362.782 259.36 361.27 259.24 359.83 259C358.438 258.808 357.19 258.4 356.086 257.776C355.03 257.152 354.19 256.264 353.566 255.112C352.942 253.96 352.63 252.448 352.63 250.576V228.616H346.438V221.776H352.63V210.616H362.854V221.776Z" fill="white"/>
</g>
<defs>
<clipPath id="clip0_2_582">
<rect width="278" height="389.2" fill="white" transform="translate(389.2) rotate(90)"/>
</clipPath>
</defs>
</svg>
